<mxfile host="app.diagrams.net" agent="Mozilla/5.0 (Windows NT 10.0; Win64; x64) AppleWebKit/537.36 (KHTML, like Gecko) Chrome/137.0.0.0 Safari/537.36 Edg/137.0.0.0" version="27.1.4">
  <diagram id="C5RBs43oDa-KdzZeNtuy" name="Page-1">
    <mxGraphModel dx="778" dy="460" grid="1" gridSize="10" guides="1" tooltips="1" connect="1" arrows="1" fold="1" page="1" pageScale="1" pageWidth="827" pageHeight="1169" math="0" shadow="0">
      <root>
        <mxCell id="WIyWlLk6GJQsqaUBKTNV-0" />
        <mxCell id="WIyWlLk6GJQsqaUBKTNV-1" parent="WIyWlLk6GJQsqaUBKTNV-0" />
        <mxCell id="WIyWlLk6GJQsqaUBKTNV-2" value="" style="rounded=0;html=1;jettySize=auto;orthogonalLoop=1;fontSize=11;endArrow=block;endFill=0;endSize=8;strokeWidth=1;shadow=0;labelBackgroundColor=none;edgeStyle=orthogonalEdgeStyle;entryX=0.5;entryY=0;entryDx=0;entryDy=0;" parent="WIyWlLk6GJQsqaUBKTNV-1" source="WIyWlLk6GJQsqaUBKTNV-3" target="1ymNtVM7lkWZost18uk0-1" edge="1">
          <mxGeometry relative="1" as="geometry">
            <mxPoint x="220" y="170" as="targetPoint" />
          </mxGeometry>
        </mxCell>
        <mxCell id="WIyWlLk6GJQsqaUBKTNV-3" value="&lt;div&gt;Create a Snow Change Request using the &lt;b&gt;EDB-NORM-SYS-REL&lt;/b&gt; template requesting temporary&lt;/div&gt;&lt;div&gt;access from QA bucket/folder to Prod bucket/folder.&amp;nbsp;&lt;/div&gt;&lt;div&gt;Include the specific QA role receiving this access.&amp;nbsp;&lt;/div&gt;&lt;div&gt;Please refers to :&amp;nbsp;&lt;a href=&quot;https://lilly.service-now.com/now/nav/ui/classic/params/target/change_request.do%3Fsys_id%3D6f9ca150475f1ed0a93e0bdbd36d4333%26sysparm_view%3D%26sysparm_domain%3Dnull%26sysparm_domain_scope%3Dnull&quot;&gt;CHG2521121&lt;/a&gt;&lt;/div&gt;" style="rounded=1;whiteSpace=wrap;html=1;fontSize=12;glass=0;strokeWidth=1;shadow=0;align=center;" parent="WIyWlLk6GJQsqaUBKTNV-1" vertex="1">
          <mxGeometry x="160" y="30" width="410" height="90" as="geometry" />
        </mxCell>
        <mxCell id="1ymNtVM7lkWZost18uk0-15" style="edgeStyle=orthogonalEdgeStyle;rounded=0;orthogonalLoop=1;jettySize=auto;html=1;exitX=1;exitY=0.5;exitDx=0;exitDy=0;entryX=0;entryY=0.5;entryDx=0;entryDy=0;" edge="1" parent="WIyWlLk6GJQsqaUBKTNV-1">
          <mxGeometry relative="1" as="geometry">
            <mxPoint x="445" y="461" as="sourcePoint" />
            <mxPoint x="610" y="461" as="targetPoint" />
          </mxGeometry>
        </mxCell>
        <mxCell id="1ymNtVM7lkWZost18uk0-16" value="Need Approval&lt;div&gt;from&lt;/div&gt;" style="edgeLabel;html=1;align=center;verticalAlign=middle;resizable=0;points=[];" vertex="1" connectable="0" parent="1ymNtVM7lkWZost18uk0-15">
          <mxGeometry x="-0.1515" y="-1" relative="1" as="geometry">
            <mxPoint x="15" y="-1" as="offset" />
          </mxGeometry>
        </mxCell>
        <mxCell id="WIyWlLk6GJQsqaUBKTNV-11" value="Move Change to Deployment Approval" style="rounded=1;whiteSpace=wrap;html=1;fontSize=12;glass=0;strokeWidth=1;shadow=0;" parent="WIyWlLk6GJQsqaUBKTNV-1" vertex="1">
          <mxGeometry x="285" y="450" width="160" height="50" as="geometry" />
        </mxCell>
        <mxCell id="1ymNtVM7lkWZost18uk0-9" style="edgeStyle=orthogonalEdgeStyle;rounded=0;orthogonalLoop=1;jettySize=auto;html=1;exitX=1;exitY=0.5;exitDx=0;exitDy=0;entryX=0;entryY=0.5;entryDx=0;entryDy=0;" edge="1" parent="WIyWlLk6GJQsqaUBKTNV-1">
          <mxGeometry relative="1" as="geometry">
            <mxPoint x="610" y="329" as="targetPoint" />
            <mxPoint x="442.5" y="329" as="sourcePoint" />
          </mxGeometry>
        </mxCell>
        <mxCell id="1ymNtVM7lkWZost18uk0-10" value="Need Approval&amp;nbsp;&lt;div&gt;from&lt;/div&gt;" style="edgeLabel;html=1;align=center;verticalAlign=middle;resizable=0;points=[];" vertex="1" connectable="0" parent="1ymNtVM7lkWZost18uk0-9">
          <mxGeometry x="-0.0763" y="-1" relative="1" as="geometry">
            <mxPoint x="4" y="-1" as="offset" />
          </mxGeometry>
        </mxCell>
        <mxCell id="1ymNtVM7lkWZost18uk0-11" style="edgeStyle=orthogonalEdgeStyle;rounded=0;orthogonalLoop=1;jettySize=auto;html=1;exitX=0.5;exitY=1;exitDx=0;exitDy=0;entryX=0.5;entryY=0;entryDx=0;entryDy=0;" edge="1" parent="WIyWlLk6GJQsqaUBKTNV-1" source="WIyWlLk6GJQsqaUBKTNV-12" target="WIyWlLk6GJQsqaUBKTNV-11">
          <mxGeometry relative="1" as="geometry" />
        </mxCell>
        <mxCell id="WIyWlLk6GJQsqaUBKTNV-12" value="Move Change to Development Approval" style="rounded=1;whiteSpace=wrap;html=1;fontSize=12;glass=0;strokeWidth=1;shadow=0;" parent="WIyWlLk6GJQsqaUBKTNV-1" vertex="1">
          <mxGeometry x="287.5" y="310" width="155" height="60" as="geometry" />
        </mxCell>
        <mxCell id="1ymNtVM7lkWZost18uk0-2" style="edgeStyle=orthogonalEdgeStyle;rounded=0;orthogonalLoop=1;jettySize=auto;html=1;exitX=0.5;exitY=1;exitDx=0;exitDy=0;" edge="1" parent="WIyWlLk6GJQsqaUBKTNV-1" source="1ymNtVM7lkWZost18uk0-1" target="WIyWlLk6GJQsqaUBKTNV-12">
          <mxGeometry relative="1" as="geometry" />
        </mxCell>
        <mxCell id="1ymNtVM7lkWZost18uk0-1" value="&lt;div&gt;Create a CAPA related to the Change stipulating the date when the QA data will be deleted (if required) and when the QA role used to access the Prod S3&lt;/div&gt;&lt;div&gt;bucket will be removed from the Prod bucket policy and KMS key access revoked. Update the System Change with the CAPA number for reference.&lt;br&gt;Please refer to:&amp;nbsp;&lt;a href=&quot;https://lilly.service-now.com/now/nav/ui/classic/params/target/u_grc_capa.do%3Fsys_id%3D9b136d1c1b579a1442170f65624bcb7d&quot;&gt;CAPA0115845&lt;/a&gt;&lt;/div&gt;" style="rounded=1;whiteSpace=wrap;html=1;" vertex="1" parent="WIyWlLk6GJQsqaUBKTNV-1">
          <mxGeometry x="142.5" y="170" width="445" height="90" as="geometry" />
        </mxCell>
        <mxCell id="1ymNtVM7lkWZost18uk0-7" value="" style="shape=image;html=1;verticalAlign=top;verticalLabelPosition=bottom;labelBackgroundColor=#ffffff;imageAspect=0;aspect=fixed;image=https://cdn1.iconfinder.com/data/icons/ios-11-glyphs/30/user_group_man_man-128.png" vertex="1" parent="WIyWlLk6GJQsqaUBKTNV-1">
          <mxGeometry x="610" y="301" width="58" height="58" as="geometry" />
        </mxCell>
        <mxCell id="1ymNtVM7lkWZost18uk0-8" value="&lt;b&gt;MQIT - CCB&lt;/b&gt;&lt;div&gt;&lt;i&gt;(Silvia Carloni)&lt;/i&gt;&lt;/div&gt;" style="text;html=1;align=center;verticalAlign=middle;whiteSpace=wrap;rounded=0;" vertex="1" parent="WIyWlLk6GJQsqaUBKTNV-1">
          <mxGeometry x="578" y="359" width="122" height="30" as="geometry" />
        </mxCell>
        <mxCell id="1ymNtVM7lkWZost18uk0-13" value="" style="shape=image;html=1;verticalAlign=top;verticalLabelPosition=bottom;labelBackgroundColor=#ffffff;imageAspect=0;aspect=fixed;image=https://cdn1.iconfinder.com/data/icons/ios-11-glyphs/30/user_group_man_man-128.png" vertex="1" parent="WIyWlLk6GJQsqaUBKTNV-1">
          <mxGeometry x="610" y="432" width="58" height="58" as="geometry" />
        </mxCell>
        <mxCell id="1ymNtVM7lkWZost18uk0-14" value="&lt;ul&gt;&lt;li&gt;&lt;b style=&quot;background-color: transparent; color: light-dark(rgb(0, 0, 0), rgb(255, 255, 255));&quot;&gt;CSQA&lt;/b&gt;&lt;/li&gt;&lt;li&gt;&lt;b style=&quot;background-color: transparent; color: light-dark(rgb(0, 0, 0), rgb(255, 255, 255));&quot;&gt;MQ-TECH&lt;/b&gt;&lt;/li&gt;&lt;/ul&gt;" style="text;html=1;align=center;verticalAlign=middle;whiteSpace=wrap;rounded=0;" vertex="1" parent="WIyWlLk6GJQsqaUBKTNV-1">
          <mxGeometry x="560" y="490" width="122" height="30" as="geometry" />
        </mxCell>
        <mxCell id="1ymNtVM7lkWZost18uk0-19" value="" style="edgeStyle=orthogonalEdgeStyle;fontSize=12;html=1;endArrow=blockThin;endFill=1;rounded=0;strokeWidth=2;endSize=4;startSize=4;strokeColor=#34A853;dashed=0;" edge="1" parent="WIyWlLk6GJQsqaUBKTNV-1">
          <mxGeometry width="100" relative="1" as="geometry">
            <mxPoint x="600" y="350" as="sourcePoint" />
            <mxPoint x="450" y="350" as="targetPoint" />
          </mxGeometry>
        </mxCell>
        <mxCell id="1ymNtVM7lkWZost18uk0-20" value="" style="edgeStyle=orthogonalEdgeStyle;fontSize=12;html=1;endArrow=blockThin;endFill=1;rounded=0;strokeWidth=2;endSize=4;startSize=4;strokeColor=#34A853;dashed=0;" edge="1" parent="WIyWlLk6GJQsqaUBKTNV-1">
          <mxGeometry width="100" relative="1" as="geometry">
            <mxPoint x="600" y="484" as="sourcePoint" />
            <mxPoint x="450" y="484" as="targetPoint" />
          </mxGeometry>
        </mxCell>
        <mxCell id="1ymNtVM7lkWZost18uk0-27" value="" style="edgeStyle=orthogonalEdgeStyle;rounded=0;orthogonalLoop=1;jettySize=auto;html=1;" edge="1" parent="WIyWlLk6GJQsqaUBKTNV-1" source="WIyWlLk6GJQsqaUBKTNV-11" target="1ymNtVM7lkWZost18uk0-21">
          <mxGeometry relative="1" as="geometry" />
        </mxCell>
        <mxCell id="1ymNtVM7lkWZost18uk0-21" value="&lt;b&gt;&lt;font style=&quot;color: rgb(0, 155, 0);&quot;&gt;Change Approved&lt;/font&gt;&lt;/b&gt;" style="text;html=1;align=center;verticalAlign=middle;whiteSpace=wrap;rounded=0;" vertex="1" parent="WIyWlLk6GJQsqaUBKTNV-1">
          <mxGeometry x="307.5" y="546" width="115" height="30" as="geometry" />
        </mxCell>
        <mxCell id="1ymNtVM7lkWZost18uk0-22" value="" style="shape=image;html=1;verticalAlign=top;verticalLabelPosition=bottom;labelBackgroundColor=#ffffff;imageAspect=0;aspect=fixed;image=https://cdn3.iconfinder.com/data/icons/flat-actions-icons-9/792/Tick_Mark_Circle-128.png" vertex="1" parent="WIyWlLk6GJQsqaUBKTNV-1">
          <mxGeometry x="350.5" y="576" width="29" height="29" as="geometry" />
        </mxCell>
      </root>
    </mxGraphModel>
  </diagram>
</mxfile>
